HIERARCHY
ROOT Hips
{
 OFFSET 0.000000 0.000000 0.000000
 CHANNELS 6 Xposition Yposition Zposition Yrotation Xrotation Zrotation
 JOINT Chest
 {
  OFFSET 0.000000 9.585900 0.002600
  CHANNELS 3 Yrotation Xrotation Zrotation
  JOINT Chest2
  {
   OFFSET 0.000000 9.601200 -0.005300
   CHANNELS 3 Yrotation Xrotation Zrotation
   JOINT Chest3
   {
    OFFSET 0.000000 9.561800 0.000000
    CHANNELS 3 Yrotation Xrotation Zrotation
    JOINT Chest4
    {
     OFFSET 0.000000 9.552100 0.000000
     CHANNELS 3 Yrotation Xrotation Zrotation
     JOINT Neck
     {
      OFFSET 0.000000 14.453000 0.000000
      CHANNELS 3 Yrotation Xrotation Zrotation
      JOINT Head
      {
       OFFSET 0.000000 8.936500 -0.011300
       CHANNELS 3 Yrotation Xrotation Zrotation
       End Site
       {
        OFFSET 0.000000 17.073600 -0.006000
       }
      }
     }
     JOINT RightCollar
     {
      OFFSET -2.921100 9.558500 0.000000
      CHANNELS 3 Yrotation Xrotation Zrotation
      JOINT RightShoulder
      {
       OFFSET -13.519700 0.000000 0.000000
       CHANNELS 3 Yrotation Xrotation Zrotation
       JOINT RightElbow
       {
        OFFSET 0.000000 -29.696600 0.000000
        CHANNELS 3 Yrotation Xrotation Zrotation
        JOINT RightWrist
        {
         OFFSET 0.000000 -24.004700 0.000000
         CHANNELS 3 Yrotation Xrotation Zrotation
         End Site
         {
          OFFSET 0.000000 -17.728500 0.000000
         }
        }
       }
      }
     }
     JOINT LeftCollar
     {
      OFFSET 2.921100 9.558500 0.000000
      CHANNELS 3 Yrotation Xrotation Zrotation
      JOINT LeftShoulder
      {
       OFFSET 13.519700 0.000000 0.000000
       CHANNELS 3 Yrotation Xrotation Zrotation
       JOINT LeftElbow
       {
        OFFSET 0.000000 -29.696600 0.000000
        CHANNELS 3 Yrotation Xrotation Zrotation
        JOINT LeftWrist
        {
         OFFSET 0.000000 -24.004700 0.000000
         CHANNELS 3 Yrotation Xrotation Zrotation
         End Site
         {
          OFFSET 0.000000 -17.728500 0.000000
         }
        }
       }
      }
     }
    }
   }
  }
 }
 JOINT RightHip
 {
  OFFSET -7.771700 -0.012900 -0.001300
  CHANNELS 3 Yrotation Xrotation Zrotation
  JOINT RightKnee
  {
   OFFSET 0.000000 -40.869800 0.001200
   CHANNELS 3 Yrotation Xrotation Zrotation
   JOINT RightAnkle
   {
    OFFSET 0.000000 -39.717900 0.002100
    CHANNELS 3 Yrotation Xrotation Zrotation
    JOINT RightToe
    {
     OFFSET 0.000000 -4.965400 11.033500
     CHANNELS 3 Yrotation Xrotation Zrotation
     End Site
     {
      OFFSET 0.000000 -1.423100 5.872300
     }
    }
   }
  }
 }
 JOINT LeftHip
 {
  OFFSET 7.771700 -0.012900 -0.001300
  CHANNELS 3 Yrotation Xrotation Zrotation
  JOINT LeftKnee
  {
   OFFSET 0.000000 -40.869800 0.001200
   CHANNELS 3 Yrotation Xrotation Zrotation
   JOINT LeftAnkle
   {
    OFFSET 0.000000 -39.717900 0.002100
    CHANNELS 3 Yrotation Xrotation Zrotation
    JOINT LeftToe
    {
     OFFSET 0.000000 -4.965400 11.033500
     CHANNELS 3 Yrotation Xrotation Zrotation
     End Site
     {
      OFFSET 0.000000 -1.423100 5.872300
     }
    }
   }
  }
 }
}
MOTION
Frames: 12
Frame Time: 0.008333
-40.241878 57.803554 12.038392 177.048342 -46.963135 -3.024237 3.207736 22.035224 2.925028 1.681155 12.634652 1.528199 2.169116 15.785401 1.982273 1.681135 12.634624 1.528176 -0.098795 16.443836 1.566623 -0.706849 -5.263776 2.907319 2.017306 2.467951 0.714784 -0.464113 -20.589168 -7.352184 -29.045471 -12.631521 82.901280 -5.778280 2.484920 -30.046431 -11.157559 -1.350686 -0.055514 1.106766 -14.614640 8.924441 28.316984 -21.450400 -76.242985 14.856077 -5.598745 20.098419 3.527104 -24.758895 -2.755085 -36.652276 73.236433 -41.016218 6.478385 -14.089560 11.985361 0.000580 0.012398 0.034935 -6.710942 -21.893132 5.239135 89.249116 81.120197 90.216579 1.614854 -22.177189 -19.117345 0.001763 0.013232 0.008373
-40.243000 57.803744 12.039207 177.065870 -47.023548 -3.033298 3.208626 22.044615 2.926306 1.682980 12.636886 1.529099 2.171486 15.788213 1.983458 1.682942 12.636850 1.529025 -0.102965 16.477817 1.570320 -0.687952 -5.224235 2.885941 2.014625 2.468179 0.719739 -0.448841 -20.662309 -7.357285 -29.025391 -12.599454 82.843702 -5.804519 2.489041 -30.035954 -11.145066 -1.390358 -0.069656 1.075916 -14.592868 8.940488 28.318767 -21.416009 -76.212654 14.832758 -5.624649 20.084720 3.529199 -24.695344 -2.753660 -36.667721 73.236218 -41.027089 6.459728 -14.097619 11.984520 0.014012 0.015932 0.038802 -6.714209 -21.835402 5.232253 89.250900 81.123798 90.215693 1.612314 -22.176142 -19.114744 0.005129 0.013152 0.008913
-40.243307 57.807873 12.036801 177.090762 -47.115081 -3.052129 3.203571 22.111625 2.933114 1.689136 12.614497 1.528639 2.173281 15.790833 1.984757 1.684287 12.638951 1.529972 -0.082788 16.485611 1.547359 -0.695403 -5.163858 2.898863 2.008413 2.466826 0.727361 -0.444094 -20.664617 -7.358900 -29.018414 -12.593329 82.821615 -5.790965 2.500127 -30.035734 -11.141227 -1.409798 -0.077340 1.056689 -14.561418 8.950004 28.342481 -21.421576 -76.205884 14.830746 -5.619837 20.082242 3.532164 -24.598129 -2.748757 -36.689114 73.233173 -41.036308 6.477092 -14.107979 11.974264 0.005104 0.015142 0.044321 -6.721334 -21.747460 5.230105 89.259034 81.129769 90.214085 1.605918 -22.165673 -19.101968 0.003956 0.004822 0.006722
-40.245229 57.805934 12.040214 177.104071 -47.157422 -3.055241 3.199650 22.129971 2.928473 1.689363 12.615500 1.530246 2.178339 15.770549 1.984333 1.680219 12.661423 1.533431 -0.074515 16.487946 1.538973 -0.684737 -5.122872 2.887718 2.032332 2.411110 0.715129 -0.476461 -20.603788 -7.341658 -29.010843 -12.615708 82.812864 -5.775981 2.514156 -30.028935 -11.133065 -1.435354 -0.085986 1.042644 -14.544606 8.956908 28.337008 -21.405827 -76.190590 14.819263 -5.637682 20.076112 3.532771 -24.556083 -2.753715 -36.697131 73.235376 -41.041680 6.474493 -14.114025 11.974684 0.011640 0.012686 0.038304 -6.725334 -21.709436 5.227177 89.225090 81.128221 90.166955 1.593232 -22.159338 -19.089363 0.003761 0.007077 0.006189
-40.246827 57.802054 12.045855 177.108741 -47.183336 -3.055303 3.204531 22.106573 2.930227 1.692413 12.605506 1.530706 2.176448 15.785749 1.986975 1.674713 12.684108 1.537181 -0.066049 16.488971 1.530622 -0.676447 -5.084704 2.877707 2.032515 2.419919 0.716539 -0.465556 -20.649806 -7.346886 -29.009082 -12.581263 82.785152 -5.697728 2.541267 -30.004700 -11.123815 -1.458414 -0.095396 1.051876 -14.601530 8.954399 28.283966 -21.332626 -76.137862 14.816486 -5.643987 20.073447 3.533577 -24.531405 -2.754747 -36.704916 73.235910 -41.055704 6.475389 -14.126031 11.978089 0.004060 0.015972 0.033703 -6.727052 -21.688023 5.229600 89.230472 81.131457 90.165286 1.585338 -22.160613 -19.086980 0.002476 0.011160 0.009130
-40.247613 57.802020 12.048354 177.129742 -47.239203 -3.071782 3.203088 22.111646 2.937606 1.696389 12.596490 1.531879 2.175732 15.800670 1.989521 1.671495 12.688641 1.542360 -0.061847 16.506707 1.522196 -0.672470 -5.048344 2.870807 2.043096 2.413081 0.709012 -0.477157 -20.653279 -7.339888 -29.006301 -12.552874 82.763248 -5.670836 2.554645 -29.992798 -11.121185 -1.464156 -0.105489 1.051318 -14.627766 8.955814 28.257601 -21.286384 -76.102451 14.816778 -5.648280 20.071679 3.525715 -24.471393 -2.750325 -36.698974 73.233873 -41.046524 6.470730 -14.132936 11.973148 -0.001834 0.010092 0.024783 -6.745888 -21.637443 5.239758 89.247269 81.136415 90.165331 1.573196 -22.151558 -19.080564 0.011960 0.005472 0.011545
-40.250348 57.806455 12.046854 177.149530 -47.330660 -3.074856 3.200795 22.153211 2.933885 1.697320 12.598755 1.533013 2.174840 15.814882 1.991499 1.689960 12.637138 1.532711 -0.074296 16.567061 1.531970 -0.676704 -5.018125 2.875727 2.040534 2.422030 0.718231 -0.482333 -20.682383 -7.340658 -29.003173 -12.514204 82.721824 -5.697197 2.567386 -29.988092 -11.138084 -1.423739 -0.107119 1.048698 -14.637578 8.959311 28.238023 -21.253731 -76.072498 14.812555 -5.663368 20.062708 3.533595 -24.376193 -2.754594 -36.715207 73.231703 -41.054878 6.458078 -14.133421 11.963263 0.006721 0.006238 0.034152 -6.747537 -21.547194 5.218817 89.182601 81.136012 90.087161 1.574584 -22.133443 -19.068355 0.004039 0.000248 0.009292
-40.252511 57.805884 12.050366 177.164453 -47.379974 -3.079294 3.208444 22.102854 2.937199 1.682513 12.673936 1.534755 2.172872 15.827735 1.992785 1.695748 12.615171 1.529196 -0.073529 16.574255 1.527059 -0.680843 -4.986119 2.880282 2.035004 2.443801 0.725662 -0.470110 -20.720595 -7.349291 -29.002185 -12.496443 82.702166 -5.715886 2.569141 -29.987609 -11.131739 -1.434300 -0.113469 1.036856 -14.620873 8.965417 28.245372 -21.255052 -76.067674 14.818491 -5.666931 20.067930 3.533126 -24.323892 -2.756063 -36.705277 73.228721 -41.046578 6.453457 -14.137991 11.962820 0.007136 0.006975 0.032981 -6.760584 -21.504042 5.213540 89.174822 81.136754 90.062236 1.570253 -22.121587 -19.058699 0.004420 -0.001988 0.007311
-40.253565 57.803478 12.055968 177.175467 -47.412491 -3.087929 3.208255 22.111117 2.942423 1.691523 12.639374 1.536138 2.168766 15.838988 1.993393 1.688359 12.650495 1.535051 -0.072105 16.572173 1.523232 -0.674989 -4.964309 2.858837 2.046356 2.411102 0.718162 -0.468807 -20.723629 -7.351473 -29.007678 -12.464769 82.685046 -5.693566 2.587747 -29.980343 -11.119834 -1.464359 -0.119347 1.025042 -14.606537 8.970633 28.243148 -21.244633 -76.056726 14.808826 -5.681954 20.062306 3.531103 -24.289033 -2.752466 -36.664394 73.235175 -41.005638 6.435344 -14.148065 11.959724 0.006138 0.011475 0.030281 -6.784977 -21.476672 5.223524 89.203966 81.140087 90.070254 1.563333 -22.117215 -19.054721 0.010841 -0.001893 0.006599
-40.254967 57.801399 12.061435 177.185186 -47.446001 -3.093218 3.209334 22.121519 2.945727 1.700654 12.606059 1.539217 2.177903 15.810078 1.991451 1.676872 12.692208 1.539186 -0.078476 16.600667 1.529646 -0.678417 -4.950654 2.862692 2.050203 2.412842 0.727892 -0.470653 -20.717531 -7.359721 -29.012419 -12.444618 82.675534 -5.672072 2.599554 -29.972094 -11.127151 -1.441417 -0.117914 1.030524 -14.679980 8.964726 28.203549 -21.173762 -76.006354 14.781054 -5.732767 20.053546 3.529222 -24.254725 -2.752710 -36.661278 73.234542 -41.001225 6.432000 -14.154139 11.959916 0.005415 0.014696 0.026947 -6.796778 -21.446819 5.224199 89.212884 81.141272 90.067951 1.560479 -22.116934 -19.056581 0.011619 0.001832 0.011574
-40.258446 57.805432 12.061250 177.212911 -47.526809 -3.097509 3.200339 22.154381 2.942457 1.700259 12.611760 1.539179 2.173856 15.823196 1.991893 1.688966 12.647735 1.534024 -0.092352 16.647193 1.535137 -0.686625 -4.930128 2.861000 2.046955 2.445665 0.734757 -0.487168 -20.687999 -7.354766 -29.004145 -12.487984 82.669374 -5.662681 2.613907 -29.948107 -11.144414 -1.387080 -0.122764 1.030730 -14.729611 8.962359 28.177995 -21.122600 -75.969156 14.768950 -5.755716 20.049696 3.520504 -24.170528 -2.765676 -36.652815 73.237716 -40.992680 6.427515 -14.152239 11.957036 0.007824 0.009471 0.028889 -6.809631 -21.368372 5.202965 89.186740 81.142350 90.025098 1.553866 -22.105582 -19.045566 0.009848 -0.002712 0.009785
-40.260565 57.807305 12.063450 177.236760 -47.587422 -3.107699 3.210021 22.124112 2.956304 1.684783 12.659678 1.535931 2.163483 15.855986 1.993124 1.692303 12.630961 1.531509 -0.092987 16.618022 1.524236 -0.708704 -4.899651 2.860471 2.057822 2.432970 0.730001 -0.492045 -20.692745 -7.352948 -29.005722 -12.473306 82.648078 -5.654471 2.620133 -29.939574 -11.138742 -1.399965 -0.127823 1.021546 -14.745105 8.965104 28.159831 -21.087053 -75.940536 14.759725 -5.773946 20.047971 3.511809 -24.104951 -2.771746 -36.636553 73.235975 -40.972421 6.417894 -14.153305 11.954325 0.006351 0.008066 0.025859 -6.824125 -21.310164 5.191987 89.182991 81.144706 90.012277 1.547983 -22.100848 -19.040495 0.011232 -0.004650 0.008782
